<svg width="43" height="43" viewBox="0 0 43 43" fill="none" xmlns="http://www.w3.org/2000/svg">
<path fill-rule="evenodd" clip-rule="evenodd" d="M20.6875 11.093C18.3609 11.3445 15.9603 12.5171 14.2263 14.249C8.58464 19.8838 10.6349 29.4498 18.095 32.2997C19.4572 32.82 20.4633 33 22.0102 33C25.0394 33 27.6701 31.9173 29.793 29.7969C31.916 27.6766 33 25.0491 33 22.0235C33 18.9905 31.918 16.3743 29.7789 14.2349C28.0121 12.4678 25.6593 11.3447 23.1776 11.0834C22.1016 10.9701 21.814 10.9712 20.6875 11.093ZM21.0185 14.0492C17.6386 14.503 14.8387 17.0926 14.174 20.3799C13.9251 21.6103 14.0057 23.3038 14.366 24.4192C15.2381 27.1176 17.3835 29.1143 20.1545 29.8059C21.3357 30.1008 23.3289 30.0452 24.3911 29.6878C27.5724 28.6175 29.5598 26.2134 30.0011 22.9015C30.3582 20.2206 29.091 17.2879 26.8531 15.6162C25.2216 14.3976 22.9561 13.7891 21.0185 14.0492ZM22.5928 16.7655C22.5935 18.3696 22.6911 18.7802 23.2077 19.3525C24.0129 20.2445 24.7918 20.3525 26.912 19.8658L28.2158 19.5665L28.3216 19.8438C28.634 20.6622 28.6552 20.638 27.3897 20.9066C26.0284 21.1957 25.5954 21.3967 25.1073 21.9662C24.4879 22.6889 24.33 23.6544 24.6986 24.465C24.8071 24.7034 25.2154 25.3904 25.6061 25.9918L26.3164 27.0852L25.9623 27.3787C25.7673 27.5401 25.5525 27.6734 25.4847 27.675C25.4169 27.6766 25.0408 27.1755 24.649 26.5616C24.2571 25.9476 23.7855 25.3303 23.601 25.1897C22.8027 24.5815 21.7856 24.4784 20.9228 24.9179C20.4114 25.1785 20.0721 25.5625 19.2617 26.7976L18.6295 27.761L18.1749 27.4486C17.8959 27.2569 17.7489 27.0878 17.7943 27.0108C17.835 26.9417 18.1763 26.4096 18.5526 25.8283C18.9288 25.247 19.3013 24.6184 19.3801 24.4313C19.6139 23.8768 19.5612 23.0389 19.2538 22.4228C18.816 21.5454 18.2933 21.2487 16.5078 20.864C16.0422 20.7637 15.6249 20.6477 15.5805 20.606C15.536 20.5645 15.5521 20.3671 15.6163 20.1673C15.6804 19.9676 15.7486 19.7506 15.768 19.6852C15.7921 19.6035 16.2118 19.6599 17.1078 19.8657C19.4653 20.4068 20.2645 20.225 21.0963 18.9586C21.3587 18.559 21.376 18.4503 21.4108 16.9769L21.4476 15.418H22.02H22.5922L22.5928 16.7655ZM20.035 17.0127C20.0004 18.2625 19.9932 18.2959 19.7028 18.5452C19.5242 18.6986 19.2713 18.8005 19.0679 18.8011C18.5338 18.8028 16.5607 18.3539 16.5607 18.2308C16.5607 18.1696 16.9297 17.7582 17.3807 17.3165C18.1548 16.5586 19.4755 15.7351 19.917 15.7351C20.0444 15.7351 20.0644 15.9511 20.035 17.0127ZM25.0383 16.1243C25.5809 16.3946 26.0702 16.7589 26.6397 17.3165C27.0907 17.7582 27.4598 18.1696 27.4598 18.2308C27.4598 18.3556 25.4833 18.8027 24.9385 18.8011C24.6914 18.8004 24.4943 18.708 24.2771 18.4911C23.9709 18.1853 23.9678 18.17 23.9678 16.9586C23.9678 15.995 23.9985 15.7351 24.1124 15.7351C24.1918 15.7351 24.6084 15.9102 25.0383 16.1243ZM21.3685 20.1756C20.902 20.3194 20.2822 20.9828 20.1475 21.4827C19.9204 22.3251 20.241 23.1602 20.9877 23.6712C21.5162 24.0329 22.5043 24.0329 23.0327 23.6712C23.6631 23.2399 23.9149 22.7695 23.9149 22.0235C23.9149 21.2892 23.6634 20.8074 23.0667 20.3991C22.6811 20.1352 21.8531 20.0262 21.3685 20.1756ZM22.3806 21.6536C22.497 21.7699 22.5922 21.9363 22.5922 22.0235C22.5922 22.1107 22.497 22.2772 22.3806 22.3934C22.2642 22.5097 22.0975 22.6048 22.0102 22.6048C21.9229 22.6048 21.7563 22.5097 21.6399 22.3934C21.5235 22.2772 21.4282 22.1107 21.4282 22.0235C21.4282 21.9363 21.5235 21.7699 21.6399 21.6536C21.7563 21.5374 21.9229 21.4422 22.0102 21.4422C22.0975 21.4422 22.2642 21.5374 22.3806 21.6536ZM16.5756 22.3024C17.3269 22.4752 17.6283 22.5979 17.8533 22.8227C18.3367 23.3055 18.2659 23.7143 17.4866 24.9401C17.1229 25.5123 16.7776 25.9667 16.7194 25.95C16.5427 25.8992 15.9504 24.8393 15.7142 24.151C15.4551 23.3962 15.3056 22.0764 15.4791 22.0764C15.5414 22.0764 16.0348 22.1782 16.5756 22.3024ZM28.5916 22.7898C28.557 23.1822 28.4285 23.7948 28.3062 24.151C28.0685 24.8434 27.4759 25.9021 27.301 25.9464C27.2428 25.9612 26.9111 25.5364 26.5639 25.0025C26.0229 24.1704 25.9321 23.9603 25.929 23.5325C25.9239 22.833 26.1704 22.6205 27.3247 22.3285C28.7313 21.9728 28.6657 21.9489 28.5916 22.7898ZM22.499 26.1519C22.8193 26.3173 24.1095 28.1685 24.0131 28.3242C23.7762 28.7072 20.2442 28.7072 20.0073 28.3242C19.9813 28.2823 20.2392 27.8139 20.5802 27.2835C21.3791 26.0412 21.802 25.7918 22.499 26.1519Z" fill="black"/>
</svg>
