<svg width="43" height="43" viewBox="0 0 43 43" fill="none" xmlns="http://www.w3.org/2000/svg">
<path fill-rule="evenodd" clip-rule="evenodd" d="M17.3658 13.2592C17.0482 13.5759 17.0342 13.9366 17.3254 14.3056C17.5246 14.5584 17.612 14.5839 18.2783 14.5839H19.0118V15.323V16.0621H18.4241C18.101 16.0621 17.7079 16.1301 17.5506 16.2133C17.3934 16.2964 16.5745 17.0567 15.7308 17.9028L14.1969 19.441H13.3749H12.5529V23.0311V26.6211H13.3695H14.1861L15.8914 28.3106L17.5969 30H22.5548H27.5126L28.9797 29.2345L30.447 28.4689V23.3214L30.4471 18.1739H29.8798H29.3127L28.5548 17.1816C28.138 16.6357 27.7223 16.1605 27.631 16.1257C27.5397 16.0907 27.183 16.0621 26.8384 16.0621H26.2118V15.323V14.5839H26.9452C27.6115 14.5839 27.6989 14.5584 27.8982 14.3056C28.1893 13.9366 28.1754 13.5759 27.8577 13.2592L27.5979 13H22.6118H17.6257L17.3658 13.2592ZM33.8374 18.3103C33.4597 18.4998 33.3093 18.8733 33.3075 19.6258L33.3059 20.2857H32.7235H32.1412V23.0839V25.882H32.7235H33.3059V26.5225C33.3059 27.4426 33.5866 27.8781 34.1842 27.8848C34.3607 27.8868 34.5852 27.7836 34.7401 27.629L35 27.3699V23.0543V18.7387L34.7618 18.5212C34.4324 18.2206 34.1463 18.1553 33.8374 18.3103ZM24.51 18.9619C24.8377 19.1309 24.9412 19.3151 24.9412 19.7294C24.9412 19.9321 24.6557 20.2894 23.8091 21.1462L22.6769 22.2919H23.8014C24.89 22.2919 24.9328 22.3008 25.1452 22.5702C25.5982 23.1444 25.5084 23.3006 23.6545 25.1651C21.8214 27.0087 21.5288 27.2529 21.1511 27.2539C20.803 27.255 20.3882 26.8019 20.3882 26.4207C20.3882 26.1624 20.5808 25.9108 21.4471 25.0373C22.0294 24.45 22.5059 23.9484 22.5059 23.9227C22.5059 23.8969 22.0091 23.8758 21.4018 23.8758C20.3352 23.8758 20.2903 23.8664 20.0783 23.5975C19.6427 23.0453 19.7187 22.9213 21.7382 20.8897C23.4202 19.1976 23.8349 18.8371 24.1259 18.8141C24.1724 18.8105 24.3453 18.8769 24.51 18.9619ZM8.56329 19.5547C8.02319 19.754 8 19.9 8 23.0957C8 26.4021 8.00879 26.4452 8.71047 26.5804C8.99487 26.6352 9.10287 26.5935 9.37224 26.3248C9.59131 26.1064 9.69412 25.9 9.69412 25.6789C9.69412 25.3555 9.69676 25.354 10.2765 25.354H10.8588V23.0311V20.7081H10.29H9.72122L9.65632 20.3036C9.56018 19.7037 9.06994 19.3678 8.56329 19.5547Z" fill="black"/>
</svg>
