<svg width="43" height="43" viewBox="0 0 43 43" fill="none" xmlns="http://www.w3.org/2000/svg">
<path d="M25.693 26.964C25.286 26.964 24.8881 27.0857 24.5496 27.3137C24.2112 27.5418 23.9474 27.8659 23.7916 28.2451C23.6358 28.6243 23.595 29.0415 23.6745 29.4441C23.7539 29.8466 23.9499 30.2164 24.2377 30.5066C24.5256 30.7968 24.8923 30.9945 25.2915 31.0746C25.6908 31.1546 26.1046 31.1135 26.4807 30.9565C26.8567 30.7994 27.1782 30.5334 27.4043 30.1922C27.6305 29.8509 27.7512 29.4497 27.7512 29.0392C27.7505 28.4891 27.5334 27.9616 27.1476 27.5726C26.7618 27.1836 26.2387 26.9647 25.693 26.964ZM26.2131 29.0399C26.2131 29.1436 26.1827 29.245 26.1255 29.3312C26.0684 29.4175 25.9871 29.4847 25.8921 29.5244C25.7971 29.5641 25.6925 29.5745 25.5916 29.5543C25.4907 29.534 25.3981 29.4841 25.3253 29.4108C25.2526 29.3374 25.203 29.244 25.183 29.1423C25.1629 29.0405 25.1732 28.9351 25.2125 28.8393C25.2519 28.7434 25.3186 28.6615 25.4041 28.6039C25.4896 28.5463 25.5902 28.5155 25.693 28.5155C25.831 28.5155 25.9632 28.5708 26.0608 28.6691C26.1583 28.7674 26.2131 28.9008 26.2131 29.0399ZM10.6541 29.0399C10.6541 28.6294 10.5333 28.2282 10.3072 27.887C10.081 27.5457 9.7596 27.2797 9.38353 27.1227C9.00746 26.9656 8.59364 26.9245 8.19441 27.0046C7.79518 27.0847 7.42846 27.2823 7.14063 27.5725C6.8528 27.8627 6.65678 28.2325 6.57737 28.6351C6.49795 29.0376 6.5387 29.4549 6.69447 29.8341C6.85024 30.2133 7.11402 30.5374 7.45247 30.7654C7.79092 30.9934 8.18883 31.1151 8.59589 31.1152C9.14154 31.1145 9.66466 30.8956 10.0505 30.5066C10.4363 30.1175 10.6534 29.5901 10.6541 29.0399ZM28.8375 29.3893C28.8883 28.9565 28.8507 28.5177 28.7269 28.1001C28.6031 27.6825 28.3958 27.2949 28.1176 26.9613C27.8395 26.6276 27.4966 26.3549 27.1099 26.1601C26.7232 25.9653 26.3011 25.8524 25.8695 25.8284C25.4378 25.8045 25.0059 25.8699 24.6004 26.0208C24.1949 26.1717 23.8243 26.4047 23.5115 26.7056C23.1988 27.0064 22.9505 27.3687 22.7819 27.7701C22.6134 28.1715 22.5283 28.6034 22.5317 29.0392C22.5312 29.5226 22.6404 29.9998 22.8509 30.4341H11.4381C11.6558 29.9838 11.7652 29.4881 11.7575 28.9872C11.7498 28.4863 11.6253 27.9943 11.3939 27.551C11.1625 27.1077 10.8307 26.7256 10.4256 26.4356C10.0205 26.1456 9.55326 25.956 9.06188 25.882C8.57049 25.808 8.06873 25.8517 7.59724 26.0097C7.12575 26.1676 6.69779 26.4354 6.34802 26.7911C5.99826 27.1469 5.73653 27.5808 5.58403 28.0576C5.43154 28.5344 5.39257 29.0406 5.47028 29.5354C3.96927 28.8996 3 27.8593 3 26.2141C3 24.5098 8.0901 22.1128 11.3276 22V24.0143C11.3276 24.4034 11.4808 24.7765 11.7537 25.0516C12.0265 25.3267 12.3966 25.4813 12.7825 25.4813H15.5667C15.9105 25.4808 16.243 25.3572 16.5049 25.1326C16.7668 24.908 16.9412 24.597 16.9969 24.2549C16.9969 24.2549 16.902 22.9747 16.5977 22.7473L16.7974 22.5972L18.2314 24.2562H23.7454C27.4951 24.2549 30.5394 25.6399 30.5394 27.3441C30.5394 28.1307 29.8964 28.8445 28.8375 29.3893ZM9.11597 29.0392C9.11597 29.1429 9.08547 29.2443 9.02832 29.3306C8.97117 29.4168 8.88995 29.484 8.79492 29.5237C8.69988 29.5634 8.59531 29.5738 8.49442 29.5535C8.39354 29.5333 8.30087 29.4834 8.22813 29.41C8.1554 29.3367 8.10586 29.2432 8.0858 29.1415C8.06573 29.0398 8.07603 28.9344 8.11539 28.8385C8.15476 28.7427 8.22142 28.6608 8.30694 28.6032C8.39247 28.5456 8.49302 28.5148 8.59589 28.5148C8.66424 28.5148 8.73192 28.5284 8.79506 28.5548C8.85821 28.5812 8.91557 28.6199 8.96387 28.6686C9.01217 28.7174 9.05047 28.7753 9.07657 28.839C9.10267 28.9027 9.11606 28.9709 9.11597 29.0399V29.0392Z" fill="black"/>
<path d="M19.8661 19.1035C19.8662 19.4114 19.775 19.7124 19.6041 19.9684C19.4332 20.2245 19.1903 20.424 18.906 20.5419C18.6216 20.6598 18.3088 20.6908 18.0069 20.6308C17.705 20.5708 17.4277 20.4226 17.21 20.205C16.9923 19.9873 16.8441 19.71 16.784 19.408C16.7239 19.1061 16.7547 18.7931 16.8724 18.5087C16.9902 18.2242 17.1896 17.9811 17.4455 17.8101C17.7014 17.639 18.0023 17.5477 18.3101 17.5477C18.7225 17.548 19.118 17.712 19.4097 18.0037C19.7015 18.2954 19.8656 18.6909 19.8661 19.1035V19.1035ZM35.7271 17.5477C35.4195 17.5478 35.1189 17.6392 34.8632 17.8102C34.6075 17.9812 34.4082 18.2243 34.2906 18.5086C34.1729 18.7929 34.1422 19.1057 34.2023 19.4074C34.2624 19.7092 34.4106 19.9864 34.6281 20.2039C34.8457 20.4214 35.1228 20.5695 35.4245 20.6295C35.7262 20.6895 36.0389 20.6586 36.3231 20.5409C36.6073 20.4231 36.8502 20.2237 37.021 19.9678C37.1919 19.712 37.2831 19.4112 37.2831 19.1035C37.2826 18.691 37.1186 18.2956 36.827 18.0039C36.5354 17.7123 36.1401 17.5482 35.7277 17.5477H35.7271ZM40.5337 13.0627H36.3177L37.1709 16.153L31.4033 13H27.8072L27.7283 15.1748L25.7221 16.1004L24.9861 15.1948H24.0069L23.8088 16.1982C15.1849 15.383 11.7337 18.0274 11.7337 18.0274C11.7337 18.0274 12.2051 18.341 13.3593 18.5536C13.6025 18.7611 13.5887 19.4591 13.5887 19.4591H12.0716V20.4624H15.3316V18.7392C15.4469 18.7436 15.6106 18.7649 15.7742 18.7687C15.8226 18.4017 15.95 18.0496 16.1477 17.7366C16.3453 17.4237 16.6085 17.1573 16.919 16.956C17.2296 16.7547 17.5801 16.6231 17.9464 16.5704C18.3127 16.5177 18.686 16.5451 19.0407 16.6507C19.3954 16.7564 19.7229 16.9377 20.0008 17.1822C20.2786 17.4268 20.5001 17.7287 20.6499 18.0671C20.7998 18.4056 20.8745 18.7725 20.8688 19.1427C20.8631 19.5128 20.7773 19.8773 20.6171 20.211H33.4213C33.2553 19.8645 33.1693 19.4851 33.1699 19.1009C33.1705 18.7167 33.2575 18.3376 33.4246 17.9916C33.5916 17.6457 33.8344 17.3418 34.1349 17.1025C34.4354 16.8632 34.7859 16.6947 35.1604 16.6094C35.5349 16.5241 35.9238 16.5242 36.2982 16.6098C36.6727 16.6954 37.0231 16.8642 37.3234 17.1037C37.6237 17.3432 37.8662 17.6473 38.033 17.9934C38.1998 18.3395 38.2865 18.7187 38.2868 19.1029C38.2868 19.1807 38.2831 19.2572 38.2762 19.333H40.5331L40.5337 13.0627Z" fill="black"/>
</svg>
