<svg width="43" height="43" viewBox="0 0 43 43" fill="none" xmlns="http://www.w3.org/2000/svg">
<path fill-rule="evenodd" clip-rule="evenodd" d="M20.1786 14.07C16.3631 14.4932 12.935 16.7505 10.8427 20.2172C10.4798 20.8185 9.87141 22.156 9.65474 22.8288C9.26626 24.0347 9 25.5403 9 26.5304V27.069H10.7852H12.5705L12.6106 26.3093C12.7221 24.1984 13.6735 22.0637 15.2173 20.4605C17.67 17.9137 21.2464 17.0861 24.5488 18.3012C25.5104 18.655 26.6807 19.3834 27.4115 20.0828C27.6875 20.347 27.7075 20.3543 27.8858 20.2574C28.2213 20.0748 30.7806 18.5107 30.8342 18.4555C30.8977 18.39 29.6584 17.1248 29.0753 16.6599C26.5909 14.6786 23.308 13.7229 20.1786 14.07ZM28.7095 20.8536C27.2409 21.8273 25.8564 22.7452 25.6328 22.8934C25.4092 23.0414 24.5556 23.6069 23.7358 24.15C21.842 25.4046 22.0475 25.3001 21.7132 25.1786C21.2551 25.0121 20.4207 25.088 19.944 25.3396C18.8426 25.9208 18.3446 27.3695 18.8488 28.5256C19.0848 29.0668 19.5461 29.5461 20.0772 29.802C20.4126 29.9637 20.5789 29.9983 21.0272 29.9999C21.5065 30.0017 21.6238 29.9746 22.0221 29.77C22.8438 29.3481 23.3603 28.5327 23.3655 27.6494L23.3679 27.2457L25.172 25.691C29.4488 22.0051 31.8692 19.9017 31.9156 19.8307C32.0904 19.5633 31.8479 19.0832 31.5381 19.0832C31.4474 19.0832 30.2392 19.8394 28.7095 20.8536ZM30.8037 21.58C30.0705 22.2473 29.4823 22.8252 29.4966 22.8641C29.5108 22.903 29.6328 23.2144 29.7675 23.5563C30.1175 24.4442 30.3388 25.4268 30.3875 26.3093L30.4295 27.069H32.2148H34V26.5304C34 25.5305 33.777 24.2533 33.3722 22.9348C33.1487 22.2066 32.3249 20.4044 32.2046 20.3801C32.1673 20.3727 31.5369 20.9126 30.8037 21.58Z" fill="black"/>
</svg>
