<svg width="43" height="43" viewBox="0 0 43 43" fill="none" xmlns="http://www.w3.org/2000/svg">
<path fill-rule="evenodd" clip-rule="evenodd" d="M20.9416 9.07606C17.9032 9.52421 15.4982 11.9936 15.0638 15.1112C14.637 18.1742 16.3887 21.277 19.2221 22.4773C19.6162 22.6442 19.8312 22.7844 19.7603 22.8284C19.5026 22.9883 19.2312 23.8296 19.2273 24.4808C19.2204 25.6105 19.8776 26.6239 20.8875 27.0409L21.3526 27.2329L21.3529 28.1431C21.3534 29.201 21.4552 29.3654 22.1678 29.457C23.105 29.5776 23.853 30.2324 24.0369 31.0934C24.3568 32.5911 23.0014 33.9368 21.5296 33.5823C20.8641 33.422 20.2026 32.8277 20.0458 32.2493C19.7802 31.27 19.7482 31.2061 19.4652 31.0884C19.2342 30.9922 19.1249 30.999 18.8836 31.1243C18.4926 31.3274 18.4488 31.4738 18.5742 32.1612C18.8806 33.8417 20.2789 35 22.0012 35C24.6408 35 26.2933 32.2665 25.0923 29.887C24.7783 29.2649 24.013 28.5724 23.3219 28.285C22.7555 28.0496 22.7488 28.0419 22.7488 27.6349C22.7488 27.2564 22.7766 27.213 23.0917 27.0986C23.2802 27.0302 23.659 26.7716 23.9333 26.5239C24.8569 25.6902 25.0942 24.3677 24.5229 23.239L24.2768 22.7529L25.1392 22.3193C25.6797 22.0477 26.2571 21.651 26.6858 21.2568C29.2879 18.8647 29.7502 15.0428 27.795 12.0899C26.3179 9.85927 23.6339 8.67896 20.9416 9.07606ZM22.4099 12.348C22.6419 12.5036 22.7488 12.8849 22.7488 13.5577C22.7488 14.2488 22.7527 14.259 23.0986 14.4736C23.6075 14.7895 23.9449 15.4227 23.9449 16.0621C23.9449 16.6082 23.7147 17.1916 23.3788 17.4966C22.7177 18.0968 21.4968 18.1225 20.7552 17.5519C19.7691 16.7932 19.8366 15.1631 20.8825 14.4813C21.2517 14.2406 21.2536 14.2359 21.2536 13.5491C21.2536 12.5825 21.4342 12.2745 22.0012 12.2745C22.1657 12.2745 22.3496 12.3075 22.4099 12.348Z" fill="black"/>
</svg>
