<svg width="43" height="43" viewBox="0 0 43 43" fill="none" xmlns="http://www.w3.org/2000/svg">
<path d="M23.3471 9.35186C22.7008 10.0244 19.1596 13.6497 18.1245 14.7057C17.5518 15.2889 17.0842 15.8038 17.0842 15.8459C17.0842 15.8931 17.1105 15.993 17.1473 16.0665L17.2051 16.1979H18.9337C20.2472 16.1979 20.657 16.2136 20.657 16.2609C20.657 16.2977 20.5729 16.5341 20.4678 16.7863L20.2734 17.2487H18.713C17.5098 17.2487 17.0475 17.2697 16.7112 17.3328C15.6131 17.5377 14.6201 18.1629 13.9896 19.0298C13.8583 19.219 13.4747 19.9125 13.1385 20.5745L12.529 21.7777L12.3398 21.5097C11.9248 20.9318 11.3206 20.6953 10.3223 20.7269C9.73383 20.7426 9.71807 20.7479 9.58672 20.895C9.46062 21.0421 9.45537 21.0736 9.47639 21.6358C9.49215 22.1875 9.50266 22.2348 9.64451 22.4187C9.88095 22.7287 10.0228 22.7654 11.0421 22.7654C11.5307 22.7654 11.9353 22.7864 11.9353 22.8075C11.9353 22.8337 11.6621 23.0229 11.3258 23.2383C9.95976 24.0947 9.27673 25.072 9.06657 26.459C9.00352 26.8899 8.98776 27.3627 9.00878 28.8601C9.02454 30.594 9.03505 30.7516 9.14538 31.1088C9.303 31.6395 9.47113 31.96 9.71807 32.1807L9.92823 32.3698L9.94925 32.9162C9.96501 33.3996 9.98077 33.4889 10.0964 33.6571C10.1647 33.7621 10.3118 33.8935 10.4169 33.9513C10.6008 34.0564 10.6953 34.0616 12.1875 34.0616C13.8267 34.0616 13.9581 34.0459 14.184 33.8357C14.4467 33.5888 14.4782 33.4627 14.4993 32.5117L14.5203 31.6185L14.783 31.4399L15.0404 31.2612L21.5081 31.298L27.9759 31.3295L28.2281 31.5134L28.475 31.6973L28.496 32.58C28.5118 33.3944 28.5223 33.4732 28.6379 33.6571C28.7009 33.7674 28.8585 33.9093 28.9794 33.9723C29.1896 34.0826 29.2421 34.0879 30.771 34.0879C32.321 34.0879 32.3525 34.0879 32.5574 33.967C32.673 33.8987 32.8254 33.7621 32.8989 33.6571C33.0092 33.4942 33.0303 33.3996 33.046 32.9162L33.067 32.3698L33.2719 32.1859C33.5084 31.9705 33.7501 31.4976 33.8762 31.009C33.9917 30.5624 34.0443 27.6412 33.955 26.727C33.8026 25.177 33.0881 24.1 31.6012 23.1858C31.2439 22.9703 30.9549 22.7759 30.9549 22.7497C30.9549 22.7287 31.3805 22.7129 31.9006 22.7129C32.9777 22.7129 33.1143 22.6814 33.3508 22.3661C33.4926 22.1822 33.5031 22.1349 33.5189 21.5728L33.5399 20.9791L33.3823 20.8214L33.2247 20.6638H32.5679C31.6484 20.6638 31.123 20.8582 30.75 21.3363C30.6764 21.4362 30.5766 21.5675 30.5293 21.6253C30.4453 21.7356 30.4243 21.7041 29.8831 20.627C29.5784 20.0123 29.2473 19.3871 29.1528 19.2347C28.7325 18.5832 28.0809 18.0158 27.3559 17.669C26.5993 17.3117 26.4312 17.2855 24.7026 17.2539C23.8514 17.2382 23.1527 17.2067 23.1527 17.1909C23.1527 17.1751 23.7569 16.5446 24.4924 15.7881C25.228 15.0315 25.8532 14.3537 25.8795 14.2854C25.9163 14.1908 25.9058 14.1225 25.8375 14.0227L25.7534 13.8861H24.0458C23.1054 13.8861 22.3383 13.8651 22.3383 13.8441C22.3383 13.8178 22.4801 13.4448 22.6588 13.0139C22.8322 12.5831 23.1789 11.7425 23.4206 11.1382C23.6623 10.5393 23.9197 9.90879 23.9933 9.73541C24.2035 9.23102 24.1562 8.99984 23.8409 8.99984C23.7201 8.99984 23.615 9.0734 23.3471 9.35186ZM19.7638 18.4781C19.7638 18.4991 19.5064 19.1296 19.086 20.1647C18.9652 20.4484 18.8706 20.7531 18.8706 20.8319C18.8706 21.0053 19.0755 21.1629 19.2331 21.1104C19.2857 21.0946 19.9109 20.4904 20.6097 19.7654L21.8864 18.4519L23.9881 18.4676C26.0476 18.4834 26.1002 18.4886 26.4364 18.6095C27.1457 18.8669 27.6922 19.2715 28.0599 19.8179C28.2806 20.1437 29.2211 21.9878 29.2211 22.0982C29.2211 22.177 28.6041 22.1218 27.9706 22.0824C27.7867 22.0824 27.7605 22.0614 27.5555 21.7514C26.7832 20.5797 25.1755 20.254 23.9881 21.0211C23.6413 21.247 23.3523 21.5465 23.1684 21.867L23.0476 22.0824H18.9389C16.6744 22.0824 14.825 22.1244 14.825 22.1244C14.497 22.1244 14.3394 22.1244 14.3394 22.1244C14.3394 22.1244 13.7483 22.1415 13.8666 21.9051C13.8666 21.8683 14.0264 21.5255 14.3311 20.9108C14.8618 19.8547 14.9143 19.7759 15.2926 19.4028C15.5763 19.1191 15.8075 18.951 16.086 18.8144C16.7217 18.4991 16.9424 18.4676 18.4398 18.4624C19.1648 18.4571 19.7638 18.4676 19.7638 18.4781ZM25.9688 21.6095C26.179 21.6673 26.5941 21.9458 26.5941 22.0299C26.5941 22.0614 26.1475 22.0824 25.3751 22.0824H24.1614L24.256 21.9773C24.6238 21.5728 25.3173 21.4256 25.9688 21.6095ZM13.3013 26.6639C14.0474 27.0317 14.5255 27.72 14.5728 28.5028L14.5886 28.7813L13.2068 28.7971C11.7199 28.8128 11.515 28.7866 11.2523 28.5659C10.9738 28.3295 10.937 28.1981 10.937 27.4415C10.937 26.7743 10.9423 26.748 11.0736 26.6219L11.205 26.4853L12.1087 26.5063C12.9651 26.5221 13.0281 26.5273 13.3013 26.6639ZM31.9269 26.6272C32.053 26.748 32.0583 26.7795 32.0583 27.4415C32.0583 28.1981 32.0215 28.3295 31.743 28.5659C31.4803 28.7866 31.2754 28.8128 29.7885 28.7971L28.4067 28.7813L28.4225 28.5028C28.4645 27.8093 28.8428 27.1893 29.4523 26.8005C29.8305 26.5536 30.0985 26.5011 30.9969 26.5011C31.7798 26.4958 31.8008 26.5011 31.9269 26.6272ZM26.5941 28.3084V28.755H21.4976H16.4012V28.3084V27.8619H21.4976H26.5941V28.3084Z" fill="black"/>
</svg>
