<svg width="1920" height="670" viewBox="0 0 1920 670" fill="none" xmlns="http://www.w3.org/2000/svg">
  <path fill-rule="evenodd" clip-rule="evenodd" d="M924.169 3.001c157.401-12.71 286.421 30.924 425.281 53.83 138.67 22.874 291.93 36.589 390.72 80.771 104.65 46.802 173.7 107.958 180.29 174.599 6.62 66.901-33.45 140.875-143.49 197.337-105.33 54.048-282.14 69.295-433.34 98.657-122.01 23.693-240.34 49.031-369.732 57.292-129.381 8.26-256.452 5.234-374.718-9.761-124.389-15.771-231.14-43.338-323.406-78.754-107.131-41.123-222.13-83.038-255.302-143.383-35.452-64.492-33.331-141.593 65.602-201.712 98.189-59.666 298.896-68.917 445.749-109.021C669.654 85.216 767.207 15.676 924.169 3.001Z" fill="#080808"/>
</svg>